<svg xmlns="http://www.w3.org/2000/svg" viewBox="0 0 1254 1254" width="512" height="512">
  <rect width="1254" height="1254" fill="#ffffff"/>
  <g transform="translate(0.000000,1254.000000) scale(0.100000,-0.100000)"
fill="#f87171" stroke="none">
<path d="M3355 11930 c-859 -51 -1590 -445 -2037 -1100 -214 -314 -333 -618
-401 -1025 l-21 -130 -4 -3165 c-2 -2199 0 -3219 8 -3342 22 -360 95 -647 245
-955 136 -280 267 -465 485 -683 223 -224 451 -387 735 -526 299 -146 586
-231 894 -264 75 -8 933 -11 3025 -11 2614 0 2935 1 3051 16 456 56 900 238
1290 530 337 253 584 549 765 920 135 275 200 490 247 811 16 110 17 349 21
3269 3 3278 3 3352 -38 3593 -89 521 -335 984 -719 1354 -403 389 -905 621
-1511 699 -73 9 -781 13 -3000 14 -1598 1 -2963 -1 -3035 -5z m1615 -2185 c86
-14 180 -26 208 -27 29 -1 52 -6 52 -9 0 -4 -23 -16 -50 -26 l-51 -19 116 -28
c261 -61 389 -129 469 -250 20 -30 36 -57 36 -59 0 -3 -20 6 -45 20 -25 13
-45 20 -45 14 0 -6 4 -11 10 -11 19 0 111 -145 127 -199 13 -47 14 -67 4 -131
-6 -41 -16 -93 -22 -114 l-11 -39 -30 61 c-34 69 -99 139 -174 189 -46 31
-242 109 -250 100 -2 -2 21 -21 51 -42 30 -20 55 -41 55 -46 0 -12 -219 49
-290 82 -36 17 -80 44 -97 62 l-33 31 0 -30 c0 -16 -9 -48 -19 -71 l-19 -41
63 -75 64 -74 -6 -75 -6 -75 52 -18 53 -17 26 25 c83 77 189 81 226 8 42 -80
-3 -218 -95 -291 -63 -50 -109 -65 -151 -51 -17 6 -32 11 -34 11 -8 0 30 -78
47 -95 16 -16 31 -20 74 -18 44 2 55 0 55 -13 0 -34 -101 -609 -130 -734 -16
-74 -30 -154 -30 -178 l0 -44 44 39 c78 69 81 69 184 35 50 -17 107 -34 126
-38 47 -8 56 -27 56 -111 0 -118 -31 -203 -97 -264 -53 -50 -84 -67 -150 -84
-82 -22 -176 -19 -285 9 -262 66 -443 236 -563 527 -49 120 -49 123 34 160 62
28 72 36 88 74 l17 43 92 -97 c91 -95 223 -209 212 -181 -4 8 -31 72 -62 142
-59 136 -116 290 -116 314 0 8 17 22 38 30 20 9 78 35 127 58 87 41 92 45 122
102 32 61 67 170 77 239 5 34 4 37 -7 21 -6 -10 -25 -40 -42 -65 -43 -66 -90
-86 -275 -116 -314 -50 -404 -53 -455 -13 -18 14 -25 29 -25 54 0 50 27 110
56 123 33 15 26 35 -14 39 -33 3 -41 22 -22 52 10 16 66 19 145 8 l50 -7 -63
30 c-34 17 -80 33 -103 36 -24 4 -38 10 -35 17 3 6 10 27 17 48 11 34 14 36
45 31 18 -3 41 -2 51 1 15 6 11 11 -22 32 -31 19 -52 24 -93 22 -55 -2 -72 9
-71 42 0 8 34 51 75 95 85 91 94 114 69 161 l-17 32 66 124 65 124 83 28 c104
36 190 42 332 26 104 -11 210 -11 176 1 -154 55 -310 101 -353 106 -65 7 -147
-11 -183 -40 l-27 -21 6 42 c6 47 46 107 77 117 11 3 20 11 20 16 0 10 -90
-22 -126 -46 -38 -24 -64 -75 -64 -122 0 -23 5 -45 10 -48 6 -3 10 -11 10 -18
0 -22 -80 68 -89 100 -23 84 41 188 153 245 105 54 206 59 436 23z m2800 -869
c153 -27 240 -88 240 -166 0 -22 -2 -40 -5 -40 -2 0 -21 11 -41 25 -35 24
-100 46 -169 59 -28 4 -27 4 7 -12 47 -21 48 -32 3 -32 -36 0 -142 -33 -157
-48 -5 -5 19 -5 53 0 125 19 281 -24 329 -92 11 -16 41 -73 66 -125 l46 -96
-22 -44 c-21 -44 -21 -46 -4 -73 9 -15 44 -55 77 -89 68 -71 68 -84 7 -133
l-40 -31 15 -36 c19 -45 19 -43 -10 -43 -30 0 -135 -38 -135 -49 0 -5 31 -6
69 -3 61 4 70 2 79 -15 13 -24 4 -38 -30 -47 -32 -7 -37 -21 -10 -28 12 -4 22
-22 30 -57 18 -81 -7 -111 -92 -111 -67 0 -247 37 -367 76 -112 36 -175 78
-205 136 -9 16 -17 28 -19 26 -9 -9 29 -127 58 -182 40 -75 88 -122 177 -172
47 -26 70 -45 70 -57 0 -26 -45 -200 -74 -284 -14 -40 -22 -73 -18 -73 3 0 20
13 37 30 l30 29 58 -29 c32 -16 74 -32 93 -36 19 -3 34 -10 34 -14 0 -12 -112
-186 -155 -241 -125 -159 -328 -260 -556 -276 -112 -8 -179 8 -230 55 -35 31
-39 39 -39 83 0 56 31 145 90 257 32 61 49 83 86 106 49 31 98 98 109 148 4
17 10 26 15 21 4 -4 23 -64 41 -132 26 -95 35 -118 40 -100 13 45 9 124 -15
329 -40 335 -40 339 -20 423 l17 76 43 -6 c39 -5 43 -3 57 23 8 16 17 43 21
59 6 24 5 28 -5 18 -39 -38 -148 14 -203 97 -24 34 -31 58 -34 107 -4 59 -3
64 27 94 28 27 37 31 68 26 20 -4 53 -20 74 -37 44 -35 59 -36 116 -10 l43 19
-6 58 c-6 53 -4 63 21 98 29 43 70 120 86 162 l10 26 -33 -27 c-80 -65 -216
-109 -340 -110 -42 0 -76 -2 -75 -3 15 -15 130 -47 187 -52 l75 -7 -58 -27
c-38 -18 -74 -27 -108 -27 -59 0 -111 -22 -133 -55 -13 -20 -20 -22 -50 -15
-59 13 -127 51 -169 94 -35 36 -38 44 -33 78 3 21 15 62 27 92 17 47 28 60 72
86 29 18 43 29 32 25 -60 -21 -60 -21 -39 15 10 19 46 61 79 95 150 151 445
234 685 191z m-940 -312 c17 -3 30 -9 30 -12 0 -4 -9 -29 -21 -57 -17 -40 -29
-54 -63 -70 -62 -30 -99 -109 -103 -224 l-4 -86 20 49 c29 70 38 75 50 30 37
-138 44 -176 44 -239 1 -131 -62 -246 -168 -306 -59 -33 -93 -85 -102 -157 -7
-54 31 -119 87 -149 l43 -23 -59 0 c-140 0 -244 99 -244 230 0 69 27 120 109
212 71 79 91 120 91 187 l0 35 -25 -51 c-14 -28 -34 -58 -44 -67 -18 -16 -18
-15 -14 27 3 24 -2 85 -11 137 -27 159 -20 252 30 355 45 95 136 170 229 186
39 6 63 5 125 -7z m244 -839 c28 -27 65 -60 81 -73 l30 -23 -34 18 c-44 24
-131 111 -154 154 l-18 34 22 -30 c13 -16 46 -52 73 -80z m-2605 -315 c108
-217 277 -366 496 -439 168 -56 318 -60 448 -11 107 40 175 108 219 219 41
102 28 310 -28 454 -4 12 28 -3 100 -45 l107 -63 104 -217 c216 -452 265 -621
230 -793 -46 -230 -188 -361 -430 -401 l-40 -6 65 -24 c36 -14 94 -36 129 -51
l63 -26 -6 -56 c-3 -31 -34 -226 -68 -433 l-62 -377 -36 -5 c-19 -3 -92 -10
-162 -17 -71 -7 -128 -15 -128 -18 0 -4 24 -12 53 -19 51 -12 233 -96 271
-125 20 -14 19 -16 -10 -111 -20 -67 -34 -96 -45 -96 -8 0 -80 9 -160 20 -407
57 -738 80 -1144 80 -300 0 -300 0 -275 20 110 86 384 173 669 212 l164 23
-84 12 c-239 33 -504 27 -722 -17 l-88 -18 -14 28 c-13 25 -11 37 26 150 l41
124 -32 180 c-17 100 -34 192 -37 205 -5 19 15 7 100 -60 139 -111 262 -196
255 -177 -22 56 -158 529 -158 548 0 4 39 10 88 14 48 3 139 16 202 28 l115
21 -100 17 c-212 37 -348 110 -464 250 l-50 60 29 71 c42 102 85 238 112 359
20 92 23 130 23 315 -1 174 -4 226 -22 303 -11 50 -20 92 -19 92 1 0 39 13 86
29 l85 28 31 -86 c17 -48 50 -125 73 -171z m-332 99 c55 -238 31 -517 -69
-807 -48 -140 -45 -139 -102 -22 -26 54 -31 79 -34 153 l-4 88 -73 -108 c-41
-58 -97 -133 -125 -165 -29 -33 -51 -61 -49 -63 2 -2 29 3 59 11 84 22 88 21
96 -33 20 -138 -19 -389 -96 -608 -34 -94 -124 -284 -162 -338 -39 -57 -151
-197 -157 -197 -3 0 -28 35 -54 78 l-49 77 5 -75 c3 -41 22 -140 41 -219 20
-80 36 -155 36 -167 0 -13 5 -26 10 -29 6 -3 10 0 10 8 0 8 15 45 32 83 l33
69 6 -90 c19 -252 8 -345 -66 -588 -57 -187 -73 -269 -87 -431 -9 -111 -8
-146 5 -225 16 -93 17 -94 75 -155 109 -114 161 -209 162 -293 0 -28 7 -84 15
-124 12 -54 14 -102 9 -190 -8 -128 -16 -143 -60 -114 -37 24 -57 73 -65 162
-11 119 -89 286 -89 190 0 -20 -9 -61 -20 -91 -20 -53 -20 -54 -1 -87 10 -19
26 -58 36 -86 9 -30 23 -53 30 -53 34 0 28 -92 -6 -111 -11 -5 -37 -9 -57 -7
-35 3 -40 8 -97 99 -67 107 -103 154 -110 147 -5 -5 52 -155 81 -209 8 -17 13
-33 10 -37 -18 -17 -63 29 -133 135 -42 64 -79 111 -81 105 -2 -7 16 -57 41
-112 25 -55 41 -100 37 -100 -13 0 -62 61 -116 145 l-51 80 13 200 c7 110 15
218 17 240 2 24 -4 59 -14 88 -15 37 -19 74 -18 170 0 137 -8 216 -53 532 -30
203 -32 240 -32 480 0 307 14 420 69 551 103 245 103 247 120 374 43 332 66
424 148 579 l44 84 28 -39 27 -39 -6 40 c-42 299 -43 378 -6 531 75 314 291
497 614 521 57 4 108 14 145 29 31 13 60 22 66 20 5 -1 15 -27 22 -57z m1942
-140 c145 -42 236 -87 299 -149 52 -51 110 -150 130 -221 l10 -36 -48 -6 c-86
-10 -186 -77 -228 -153 -6 -10 -12 -17 -14 -14 -3 3 -20 48 -39 100 -28 77
-80 188 -237 503 -6 12 16 8 127 -24z m2030 -335 c1 -1 -6 -29 -17 -61 -48
-139 -48 -326 0 -506 24 -91 122 -293 202 -419 31 -48 56 -90 56 -93 0 -2 -46
-107 -101 -232 -56 -126 -105 -238 -110 -251 l-9 -23 -46 31 c-70 49 -202 107
-308 137 -53 15 -96 29 -96 33 0 3 33 15 74 28 40 13 101 42 135 63 54 36 155
142 183 194 11 19 11 19 -18 0 -99 -65 -191 -95 -300 -95 -33 0 -127 11 -210
25 -240 40 -357 32 -589 -39 -60 -18 -133 -37 -161 -41 -134 -18 -255 72 -284
212 -16 73 6 171 59 269 57 105 415 664 425 664 3 0 -13 -37 -35 -83 -45 -94
-65 -185 -55 -243 12 -60 76 -116 159 -139 133 -36 373 -3 521 72 165 83 260
184 391 411 l60 102 35 -6 c19 -4 37 -8 39 -10z m446 -8 c97 -26 156 -64 266
-175 121 -121 169 -190 268 -384 59 -116 83 -152 152 -225 157 -168 274 -337
388 -561 82 -163 125 -273 118 -302 -3 -13 -48 -73 -98 -134 -296 -353 -503
-549 -909 -857 -189 -143 -190 -144 -250 -153 -62 -9 -129 8 -232 61 l-88 44
-78 -16 c-42 -9 -108 -29 -146 -46 -85 -37 -137 -46 -154 -25 -10 12 4 24 83
76 52 34 126 74 165 89 108 42 90 53 -46 28 -48 -8 -105 -30 -181 -69 -111
-57 -146 -67 -158 -46 -10 16 29 54 130 123 70 49 110 69 179 89 49 15 92 29
95 33 11 11 -174 -9 -200 -22 -14 -7 -65 -42 -113 -78 -102 -76 -122 -84 -145
-62 -15 15 -9 23 72 101 123 118 159 141 234 150 34 4 81 13 105 19 l42 13
-79 19 c-44 10 -89 17 -100 16 -11 -1 -65 -23 -120 -47 -111 -50 -117 -51
-134 -31 -10 11 -1 23 46 61 31 26 92 65 135 86 l79 40 77 -25 c43 -13 107
-30 142 -36 52 -9 73 -19 106 -50 107 -98 234 -178 287 -180 22 0 261 238 350
350 37 47 100 139 139 205 39 66 96 162 127 214 31 52 89 129 130 173 l74 79
-44 -6 c-24 -4 -49 -8 -56 -10 -14 -5 -223 210 -331 339 -142 171 -309 402
-298 413 3 3 36 1 73 -5 37 -5 69 -9 71 -7 1 1 -25 21 -59 45 -72 51 -145 80
-197 80 -52 0 -132 -42 -182 -96 l-41 -45 -39 84 c-90 191 -105 405 -45 613
l15 51 67 2 c37 1 69 4 72 6 10 11 189 4 236 -9z m-1737 -248 c-51 -74 -122
-178 -158 -231 -36 -53 -68 -97 -71 -97 -4 0 -10 10 -14 23 -7 19 -9 17 -12
-16 -3 -25 -25 -68 -68 -131 l-63 -94 -13 67 c-21 106 -17 244 9 328 46 150
133 215 350 262 70 15 128 27 130 26 1 -1 -39 -63 -90 -137z m-310 -1153 c12
-20 51 -320 73 -557 9 -98 9 -149 -1 -227 -7 -56 -17 -104 -22 -108 -7 -4 -9
6 -6 26 2 17 3 31 2 31 -8 0 -77 -161 -98 -229 -39 -125 -233 -1116 -264
-1351 l-28 -215 -72 -3 c-40 -2 -72 1 -72 6 0 5 18 80 39 168 56 224 98 540
136 1019 28 353 47 448 136 678 28 71 54 152 59 181 9 52 24 280 36 553 l7
152 31 -52 c18 -29 37 -61 44 -72z m1057 -45 c172 -25 364 -90 476 -162 l57
-36 -44 -129 c-24 -70 -44 -142 -44 -158 0 -17 9 -62 20 -100 11 -38 20 -75
20 -81 0 -7 -21 -8 -67 -2 -102 13 -235 -6 -480 -68 -120 -30 -276 -68 -347
-85 -129 -29 -364 -64 -373 -56 -2 3 0 31 6 63 6 32 11 105 11 163 0 87 -6
126 -30 216 -28 102 -60 266 -60 308 0 40 235 115 425 136 101 11 324 6 430
-9z m71 -831 c-55 -51 -66 -66 -66 -93 0 -41 29 -69 70 -68 l31 1 -51 -56
c-66 -72 -83 -104 -70 -137 5 -14 18 -30 30 -36 11 -6 20 -19 20 -29 0 -10 10
-31 22 -46 19 -25 26 -27 75 -23 49 4 53 3 53 -17 0 -12 10 -32 21 -44 21 -22
27 -23 108 -17 265 19 294 19 351 -2 30 -11 97 -35 148 -54 l93 -33 64 -130
c56 -115 142 -351 132 -361 -2 -2 -24 5 -48 15 -113 50 -324 53 -504 7 -197
-51 -414 -183 -525 -320 -25 -31 -48 -56 -51 -56 -7 0 -27 111 -35 200 -7 76
17 249 46 338 27 80 25 84 -16 24 -73 -109 -174 -345 -174 -408 0 -9 -3 -14
-8 -12 -4 2 -93 60 -197 129 -237 156 -225 150 -192 105 56 -72 135 -192 157
-236 30 -58 92 -290 78 -290 -6 0 -74 18 -152 40 -147 41 -391 90 -454 90 -65
0 -66 2 -58 157 4 76 18 221 31 323 13 102 29 232 35 290 16 153 44 285 96
461 l46 155 111 13 c148 16 312 49 597 120 129 33 239 60 244 60 5 1 -21 -26
-58 -60z m-2865 11 c101 -6 283 -20 404 -31 189 -17 296 -31 545 -68 l45 -6
16 -110 16 -110 -85 -135 c-128 -203 -250 -383 -412 -610 -81 -113 -159 -224
-175 -248 -32 -49 -47 -49 -17 0 11 18 79 150 152 293 127 248 295 562 329
614 10 16 -14 3 -74 -40 -50 -36 -142 -100 -205 -144 -262 -180 -543 -382
-785 -563 -210 -158 -524 -412 -509 -412 3 0 43 20 87 44 119 65 758 384 755
377 -2 -3 -24 -35 -50 -71 -26 -36 -140 -195 -253 -355 -114 -159 -212 -295
-218 -302 -7 -6 -109 -25 -227 -42 -118 -17 -278 -42 -355 -55 -77 -13 -142
-22 -144 -20 -2 2 1 35 8 74 10 54 19 77 42 99 23 24 29 38 29 74 0 25 7 80
15 124 13 70 13 91 0 184 -21 151 -20 172 33 409 l48 215 99 140 c85 120 185
261 284 395 l25 35 -33 -30 c-18 -16 -105 -105 -192 -197 -87 -92 -159 -163
-159 -158 0 12 116 289 198 470 l69 155 59 6 c103 10 444 9 635 -1z m3812
-1209 c96 -38 100 -44 146 -236 22 -93 45 -195 50 -225 23 -118 50 -294 47
-298 -2 -2 -105 12 -227 32 -288 45 -505 72 -751 94 -109 10 -199 20 -201 23
-2 2 -18 50 -36 107 l-32 102 28 48 c59 100 214 227 356 292 150 68 259 90
432 86 106 -2 141 -7 188 -25z m-1785 -437 c139 -27 432 -120 432 -136 0 -7
-32 -9 -97 -5 -54 4 -207 10 -340 13 l-243 7 0 26 c0 14 -3 50 -7 80 l-6 54
69 -7 c38 -4 124 -18 192 -32z m312 -243 c872 -49 1652 -153 2354 -312 232
-53 790 -215 751 -218 -5 -1 -66 10 -135 23 -714 137 -2007 267 -3045 306
-345 13 -1159 13 -1470 0 -914 -37 -1951 -131 -2655 -240 -135 -21 -458 -75
-515 -87 -72 -14 -4 11 166 62 826 249 1886 416 2939 465 129 6 267 12 305 14
140 7 1125 -3 1305 -13z m-55 -451 c734 -44 1341 -116 1845 -219 l145 -30
-155 5 c-85 3 -276 12 -425 20 -1785 94 -2477 97 -3925 19 -498 -27 -920 -46
-942 -43 -33 4 451 93 697 128 498 69 824 98 1530 134 135 7 1062 -3 1230 -14z
m-130 -425 c364 -16 846 -47 840 -54 -9 -8 -526 -30 -1020 -42 -507 -12 -1049
-5 -1595 22 -317 15 -337 20 -135 35 171 13 660 42 790 47 216 9 843 5 1120
-8z"/>
<path d="M4543 9102 c-75 -15 -83 -18 -83 -39 0 -13 8 -31 18 -41 9 -10 22
-27 28 -38 6 -10 23 -20 38 -22 15 -2 26 -10 26 -18 0 -24 43 -13 55 14 7 17
15 21 30 17 43 -13 95 -17 95 -8 0 12 -92 63 -114 63 -36 0 -13 19 31 26 32 5
62 2 97 -9 27 -9 51 -15 53 -13 2 2 -25 22 -60 45 -72 46 -85 48 -214 23z"/>
<path d="M5296 8839 c-37 -29 -57 -72 -50 -106 4 -22 0 -37 -20 -60 -33 -39
-19 -51 32 -30 21 8 45 18 55 21 22 7 23 63 2 93 -15 21 -14 23 10 39 29 19
55 12 62 -16 8 -29 23 -24 23 8 0 66 -60 93 -114 51z"/>
<path d="M7853 8389 c-22 -11 -49 -29 -59 -40 -17 -19 -17 -19 19 -4 47 19 79
19 125 -1 l37 -17 -30 -7 c-16 -4 -55 -19 -85 -35 -53 -27 -54 -28 -30 -37 16
-6 33 -5 48 1 34 16 46 14 57 -11 6 -13 18 -24 28 -26 13 -3 17 3 17 26 0 23
4 28 22 28 24 -1 64 55 55 78 -5 13 -81 46 -138 59 -16 4 -40 -1 -66 -14z"/>
<path d="M7267 8142 c-10 -10 -17 -27 -17 -37 0 -18 1 -18 13 -1 13 17 15 17
46 1 25 -12 30 -20 22 -28 -15 -15 -14 -62 2 -74 16 -13 79 -34 85 -29 2 3 -6
19 -18 35 -14 20 -19 38 -15 51 5 16 -3 31 -33 60 -44 44 -61 49 -85 22z"/>
<path d="M8123 8019 c-18 -12 -33 -23 -33 -26 0 -7 62 6 88 19 12 6 22 15 22
20 0 15 -45 8 -77 -13z"/>
<path d="M7111 5354 c-1 -74 7 -133 44 -324 l13 -65 1 105 c1 73 -5 134 -20
200 -38 176 -37 173 -38 84z"/>
</g>
</svg>
